<svg xmlns="http://www.w3.org/2000/svg" viewBox="0 0 32 32" width="20" height="20" style="fill: rgba(255, 255, 255, 1);border-color: rgba(0,0,0,0);border-width: bpx;border-style: undefined" filter="none"><path d="M23.491 7.957l1.937-1.937 1.885 1.885-1.937 1.937c1.635 2.033 2.625 4.646 2.625 7.49 0 6.627-5.373 12-12 12s-12-5.373-12-12c0-6.627 5.373-12 12-12 2.844 0 5.457 0.989 7.513 2.643l-0.023-0.018zM16 26.667c5.155 0 9.333-4.179 9.333-9.333s-4.179-9.333-9.333-9.333v0c-5.155 0-9.333 4.179-9.333 9.333s4.179 9.333 9.333 9.333v0zM14.667 10.667h2.667v8h-2.667v-8zM10.667 1.333h10.667v2.667h-10.667v-2.667z"></path></svg>