<svg xmlns="http://www.w3.org/2000/svg" viewBox="0 0 32 32" width="21" height="21" style="fill: rgba(255, 255, 255, 1);border-color: rgba(0,0,0,0);border-width: bpx;border-style: undefined" filter="none"><path d="M12.488 14.243c1.274 2.21 3.059 3.996 5.201 5.233l0.068 0.036 1.179-1.651c0.245-0.34 0.639-0.558 1.085-0.558 0.235 0 0.455 0.061 0.647 0.167l-0.007-0.003c1.766 0.984 3.844 1.636 6.057 1.815l0.054 0.004c0.69 0.056 1.228 0.63 1.228 1.329 0 0 0 0 0 0v0 5.949c0 0 0 0 0 0 0 0.688-0.522 1.255-1.192 1.326l-0.006 0c-0.707 0.073-1.419 0.109-2.136 0.109-11.413 0-20.667-9.253-20.667-20.667 0-0.717 0.036-1.429 0.109-2.136 0.071-0.676 0.638-1.197 1.326-1.197 0 0 0 0 0 0h5.949c0 0 0 0 0 0 0.699 0 1.273 0.538 1.329 1.223l0 0.005c0.183 2.266 0.835 4.345 1.858 6.189l-0.040-0.078c0.103 0.185 0.164 0.405 0.164 0.64 0 0.446-0.219 0.84-0.555 1.082l-0.004 0.003-1.651 1.179zM9.125 13.367l2.533-1.809c-0.675-1.418-1.186-3.064-1.45-4.791l-0.012-0.099h-3.516c-0.008 0.221-0.012 0.444-0.012 0.667-0.001 9.941 8.057 18 17.999 18 0.223 0 0.445-0.004 0.667-0.013v-3.516c-1.827-0.277-3.472-0.788-5-1.509l0.109 0.046-1.809 2.533c-0.834-0.326-1.531-0.662-2.199-1.043l0.082 0.043-0.077-0.044c-2.63-1.515-4.754-3.64-6.226-6.189l-0.043-0.081-0.044-0.077c-0.338-0.586-0.674-1.283-0.961-2.005l-0.039-0.112z"></path></svg>