<svg xmlns="http://www.w3.org/2000/svg" xmlns:xlink="http://www.w3.org/1999/xlink" width="16" height="17" viewBox="0 0 16 17">
  <defs>
    <style>
      .cls-1, .cls-4 {
        fill: none;
        stroke-miterlimit: 10;
      }

      .cls-1 {
        stroke: #05d3d8;
      }

      .cls-2 {
        clip-path: url(#clip-path);
      }

      .cls-3 {
        fill: #05d3d8;
      }

      .cls-4 {
        stroke: #fff;
        stroke-linecap: round;
        stroke-linejoin: round;
      }
    </style>
    <clipPath id="clip-path">
      <path id="蒙版" class="cls-1" d="M6,0H16a0,0,0,0,1,0,0V11a6,6,0,0,1-6,6H0a0,0,0,0,1,0,0V6A6,6,0,0,1,6,0Z" transform="translate(84 21)"/>
    </clipPath>
  </defs>
  <g id="椭圆形" class="cls-2" transform="translate(-84 -21)">
    <path id="椭圆形-2" data-name="椭圆形" class="cls-3" d="M16,0c8.837,0,16,6.044,16,13.5S24.837,27,16,27,0,20.956,0,13.5,7.163,0,16,0Z" transform="translate(84 22)"/>
    <path id="路径_2" data-name="路径 2" class="cls-4" d="M0,2.029,2.577,4.56,7.5,0" transform="translate(89.779 28.783)"/>
  </g>
</svg>
