<svg id="编组_3" data-name="编组 3" xmlns="http://www.w3.org/2000/svg" width="16" height="16" viewBox="0 0 16 16">
  <defs>
    <style>
      .cls-1 {
        fill: #05d3d8;
      }

      .cls-2 {
        fill: #fff;
      }
    </style>
  </defs>
  <circle id="椭圆形" class="cls-1" cx="8" cy="8" r="8"/>
  <path id="路径" class="cls-2" d="M3.607,6a.747.747,0,0,1-.366-.12L.15,3.034a.406.406,0,0,1,0-.629A.508.508,0,0,1,.5,2.269.508.508,0,0,1,.848,2.4L3.573,4.89,8.129.155a.557.557,0,0,1,.7-.06.433.433,0,0,1,.068.629L4.006,5.819a.493.493,0,0,1-.4.18h0Z" transform="translate(4 5)"/>
</svg>
