<svg xmlns="http://www.w3.org/2000/svg" width="65.063" height="16.052" viewBox="0 0 65.063 16.052">
  <defs>
    <style>
      .cls-1 {
        fill: none;
        opacity: 0;
      }

      .cls-2 {
        fill: #2c2d2f;
        stroke: rgba(0,0,0,0);
        stroke-miterlimit: 10;
      }
    </style>
  </defs>
  <g id="组_9494" data-name="组 9494" transform="translate(-154.496 -57.948)">
    <rect id="矩形_1840" data-name="矩形 1840" class="cls-1" width="65" height="16" transform="translate(154.5 58)"/>
    <g id="logo" transform="translate(-97.17 -435.225)">
      <path id="联合_110" data-name="联合 110" class="cls-2" d="M-7620.2,2642.232a.711.711,0,0,1-.189-.025.734.734,0,0,1-.52-.9v-.364c.086-.32.378-.18.709-.18h1.814a4.788,4.788,0,0,0,4.775-4.775v-.345a.462.462,0,0,0-.462-.462h-9.729a1.163,1.163,0,0,1-1.164-1.164v-2.864a.733.733,0,0,1,.734-.734.735.735,0,0,1,.735.734v.833c0,1.772-.288,1.724,1.724,1.724l6.716,0V2632.2c0-2.466.358-2.5-2.5-2.5l-8.151,0a.735.735,0,0,1-.734-.735.734.734,0,0,1,.734-.735l8.153,0c4.614,0,3.976-.572,3.976,3.974v1.515a1.526,1.526,0,0,1,1.442,1.525v1.446a5.544,5.544,0,0,1-5.544,5.546Zm38.766-.044a.743.743,0,0,1-.742-.744l-.006-12.739a.521.521,0,0,1,.521-.523h2.864a.925.925,0,0,1,.218.025,1,1,0,0,1,.76,1.2l-.923,4.76a.55.55,0,0,0,0,.236l.88,3.97a2.487,2.487,0,0,1,.062.548,2.525,2.525,0,0,1-2.526,2.524h-.364v0a.743.743,0,0,1-.742.742Zm.746-12.242v10.009a1.334,1.334,0,0,0,.29-.031,1.331,1.331,0,0,0,1.009-1.588l-.869-3.907a.653.653,0,0,1,0-.3l.782-4.131a.287.287,0,0,0,.006-.058.27.27,0,0,0-.271-.27h-.671A.276.276,0,0,0-7580.687,2629.946Zm-6.536,12.242a.514.514,0,0,1-.514-.512v-3.1a.5.5,0,0,1,.5-.495h1.54a.784.784,0,0,1,.151.015.744.744,0,0,1,.577.882.761.761,0,0,1-.757.591h-.518v1.13h.523a1.272,1.272,0,0,0,1.272-1.271v-2.436a.508.508,0,0,0-.508-.506h-2.815c-.3.2-.614.385-.938.554v3.076a2.071,2.071,0,0,1-2.071,2.071h-1.486a.5.5,0,0,1-.5-.5v-13.032a.462.462,0,0,1,.462-.462h3.134a.462.462,0,0,1,.462.462v6.494a10.667,10.667,0,0,0,1.747-1.4h-.882a.677.677,0,0,1-.677-.677v-.132a.678.678,0,0,1,.677-.679h1.216v-2.5h-1.04a.745.745,0,0,1-.744-.744.745.745,0,0,1,.744-.744h1.04v-.531a.523.523,0,0,1,.523-.524h.441a.523.523,0,0,1,.522.524v.531h.191a.743.743,0,0,1,.744.744.743.743,0,0,1-.744.744h-.191v1.717a22.425,22.425,0,0,0,1.419-2.52l0,0a.8.8,0,0,1,1.063-.37.682.682,0,0,1,.3.942,16.113,16.113,0,0,1-1.433,2.729.678.678,0,0,1,.677.679v.132a.677.677,0,0,1-.677.677h-1a12.088,12.088,0,0,1-1.118,1.245h2.135a.811.811,0,0,1,.812.809v3.983a2.4,2.4,0,0,1-2.4,2.4Zm-4.058-12.3v10.6a.2.2,0,0,0,.205.207h.071a.8.8,0,0,0,.8-.8h0v-10.008a.2.2,0,0,0-.205-.205h-.667A.2.2,0,0,0-7591.281,2629.888Zm-7.1,12.3a.743.743,0,0,1-.742-.744l-.006-12.739a.522.522,0,0,1,.522-.523h2.863a.932.932,0,0,1,.219.025,1,1,0,0,1,.759,1.2l-.922,4.76a.535.535,0,0,0,0,.236l.88,3.97a2.517,2.517,0,0,1,.061.548,2.524,2.524,0,0,1-2.526,2.524h-.364v0a.743.743,0,0,1-.742.742Zm.748-12.242v10.009a1.326,1.326,0,0,0,.288-.031,1.331,1.331,0,0,0,1.009-1.588l-.869-3.907a.727.727,0,0,1,0-.3l.782-4.131a.287.287,0,0,0,.006-.058.27.27,0,0,0-.269-.27h-.671A.276.276,0,0,0-7597.635,2629.946Zm-6.538,12.242a.512.512,0,0,1-.512-.512v-3.1a.5.5,0,0,1,.493-.495h1.54a.784.784,0,0,1,.151.015.744.744,0,0,1,.577.882.761.761,0,0,1-.755.591h-.52v1.13h.524a1.272,1.272,0,0,0,1.271-1.271v-2.436a.508.508,0,0,0-.508-.506h-2.815c-.3.2-.614.385-.938.554v3.076a2.071,2.071,0,0,1-2.069,2.071h-1.488a.5.5,0,0,1-.5-.5v-13.032a.461.461,0,0,1,.462-.462h3.132a.462.462,0,0,1,.462.462v6.494a10.744,10.744,0,0,0,1.749-1.4h-.884a.677.677,0,0,1-.677-.677v-.132a.678.678,0,0,1,.677-.679h1.216v-2.5h-1.04a.745.745,0,0,1-.744-.744.745.745,0,0,1,.744-.744h1.04v-.531a.523.523,0,0,1,.523-.524h.441a.523.523,0,0,1,.523.524v.531h.192a.743.743,0,0,1,.742.744.743.743,0,0,1-.742.744h-.192v1.717a22.663,22.663,0,0,0,1.419-2.52v0h0a.793.793,0,0,1,1.061-.37.684.684,0,0,1,.3.942,16.228,16.228,0,0,1-1.435,2.729.678.678,0,0,1,.677.679v.132a.677.677,0,0,1-.677.677h-1a12.338,12.338,0,0,1-1.12,1.245h2.134a.81.81,0,0,1,.812.809v3.983a2.4,2.4,0,0,1-2.4,2.4Zm-4.058-12.3v10.6a.206.206,0,0,0,.205.207h.071a.8.8,0,0,0,.8-.8v-10.008a.206.206,0,0,0-.207-.205h-.667A.205.205,0,0,0-7608.231,2629.888Zm-30.229,12.3a.646.646,0,0,1-.169-.021.733.733,0,0,1-.546-.882.737.737,0,0,1,.717-.566h.418a2.466,2.466,0,0,0,2.422-2.463l0-10.3a.734.734,0,0,1,.735-.735.736.736,0,0,1,.732.735l.006,10.3a3.934,3.934,0,0,1-3.871,3.932Zm9.167-2.345-2.265-8.448a.725.725,0,0,1-.023-.18.69.69,0,0,1,.692-.69.69.69,0,0,1,.667.512l2.263,8.45a.629.629,0,0,1,.023.178.693.693,0,0,1-.69.692A.7.7,0,0,1-7629.293,2639.842Zm-12.023.489a.691.691,0,0,1-.491-.846l2.265-8.45a.689.689,0,0,1,.667-.512.711.711,0,0,1,.178.023.694.694,0,0,1,.489.848l-2.265,8.448a.686.686,0,0,1-.666.512A.683.683,0,0,1-7641.316,2640.331Zm15.607-1.791a.734.734,0,0,1-.734-.735.733.733,0,0,1,.734-.734h10.092a.734.734,0,0,1,.734.734.736.736,0,0,1-.734.735Z" transform="translate(7894 -2133.552)"/>
    </g>
  </g>
</svg>
