<svg xmlns="http://www.w3.org/2000/svg" width="29.4" height="25" viewBox="0 0 29.4 25">
  <defs>
    <style>
      .cls-1 {
        fill: #fff;
        opacity: 0;
      }

      .cls-2 {
        fill: #eaeaea;
      }

      .cls-3 {
        fill: #f3f7fa;
      }

      .cls-4, .cls-8 {
        fill: #edeff4;
      }

      .cls-5 {
        fill: #0f0c69;
      }

      .cls-6 {
        fill: #363381;
      }

      .cls-7 {
        fill: #eeeef2;
      }

      .cls-9 {
        fill: #fdfdff;
      }

      .cls-10 {
        fill: none;
        stroke: #65ffff;
        stroke-linecap: round;
        stroke-linejoin: round;
        stroke-width: 2.5px;
      }

      .cls-11, .cls-12 {
        stroke: none;
      }

      .cls-12 {
        fill: #e7eaea;
      }
    </style>
  </defs>
  <g id="robot" transform="translate(-23.6 -595)">
    <rect id="矩形_2254" data-name="矩形 2254" class="cls-1" width="29" height="25" transform="translate(24 595)"/>
    <g id="组_12182" data-name="组 12182" transform="translate(24 595.925)">
      <path id="路径_26172" data-name="路径 26172" class="cls-2" d="M77.762,536.06H67.68a9.062,9.062,0,0,1-9.049-9.074v-4.125c0-5.012,3.016-9.594,14.09-9.594s14.09,4.582,14.09,9.594v4.125A9.062,9.062,0,0,1,77.762,536.06Z" transform="translate(-58.631 -513.267)"/>
      <path id="路径_26173" data-name="路径 26173" class="cls-3" d="M72.719,513.267c-11.072,0-14.088,4.582-14.088,9.594v4.125a9.052,9.052,0,0,0,2.036,5.733,8.993,8.993,0,0,0,5.716,2.042h10.08a9.061,9.061,0,0,0,9.048-9.074v-4.125a8.644,8.644,0,0,0-1.717-5.474C81.646,514.371,78.153,513.267,72.719,513.267Z" transform="translate(-58.631 -513.267)"/>
      <g id="路径_26174" data-name="路径 26174" class="cls-4" transform="translate(-58.631 -513.267)">
        <path class="cls-11" d="M 77.76171112060547 536.260498046875 L 67.67988586425781 536.260498046875 C 62.58002853393555 536.260498046875 58.43099975585938 532.10009765625 58.43099975585938 526.9862060546875 L 58.43099975585938 522.8612060546875 C 58.43099975585938 519.9591674804688 59.42844772338867 517.6610717773438 61.39565658569336 516.0307006835938 C 63.76856994628906 514.0641479492188 67.57888031005859 513.0670166015625 72.72074127197266 513.0670166015625 C 77.86258697509766 513.0670166015625 81.67288970947266 514.0641479492188 84.04579925537109 516.0307006835938 C 86.01300048828125 517.6610717773438 87.01044464111328 519.9591674804688 87.01044464111328 522.8612060546875 L 87.01044464111328 526.9862060546875 C 87.01044464111328 532.10009765625 82.86148071289062 536.260498046875 77.76171112060547 536.260498046875 Z"/>
        <path class="cls-12" d="M 77.76171112060547 536.0604858398438 C 82.75914764404297 536.0604858398438 86.81044769287109 531.9978637695312 86.81044769287109 526.9862060546875 L 86.81044769287109 522.8612060546875 C 86.81044769287109 517.8494873046875 83.79428863525391 513.2670288085938 72.72074127197266 513.2670288085938 C 61.64715957641602 513.2670288085938 58.63099670410156 517.8494873046875 58.63099670410156 522.8612060546875 L 58.63099670410156 526.9862060546875 C 58.63099670410156 531.9978637695312 62.68230819702148 536.0604858398438 67.67988586425781 536.0604858398438 L 77.76171112060547 536.0604858398438 M 77.76171112060547 536.4605102539062 L 67.67988586425781 536.4605102539062 C 62.46974945068359 536.4605102539062 58.23099899291992 532.2103271484375 58.23099899291992 526.9862060546875 L 58.23099899291992 522.8612060546875 C 58.23099899291992 519.8967895507812 59.2528076171875 517.546875 61.26803970336914 515.876708984375 C 63.67778778076172 513.879638671875 67.53103637695312 512.8670043945312 72.72074127197266 512.8670043945312 C 77.91043090820312 512.8670043945312 81.763671875 513.879638671875 84.17341613769531 515.876708984375 C 86.18863677978516 517.546875 87.21044921875 519.8967895507812 87.21044921875 522.8612060546875 L 87.21044921875 526.9862060546875 C 87.21044921875 532.2103271484375 82.97175598144531 536.4605102539062 77.76171112060547 536.4605102539062 Z"/>
      </g>
      <path id="路径_26175" data-name="路径 26175" class="cls-3" d="M72.719,513.267c-11.072,0-14.088,4.582-14.088,9.594v4.125a9.052,9.052,0,0,0,2.036,5.733,8.993,8.993,0,0,0,5.716,2.042h10.08a9.061,9.061,0,0,0,9.048-9.074v-4.125a8.644,8.644,0,0,0-1.717-5.474C81.646,514.371,78.153,513.267,72.719,513.267Z" transform="translate(-58.631 -513.267)"/>
      <path id="路径_26176" data-name="路径 26176" class="cls-5" d="M99.743,564.857h-7.6c-3.767,0-6.821-2.369-6.821-5.291v-2.405c0-2.922,2.274-5.594,10.622-5.594s10.622,2.672,10.622,5.594v2.405C106.565,562.489,103.51,564.857,99.743,564.857Z" transform="translate(-81.853 -546.591)"/>
      <path id="路径_26177" data-name="路径 26177" class="cls-6" d="M93.716,560.107c2.081-3.557,8.977-3.456,12.14-3.223a22.66,22.66,0,0,0-5.072-.485c-7.692,0-9.787,2.419-9.787,5.065v2.178c0,1.889,1.435,3.522,3.519,4.3C93.881,567.126,91.682,563.582,93.716,560.107Z" transform="translate(-86.791 -550.794)"/>
      <path id="路径_26178" data-name="路径 26178" class="cls-7" d="M100.735,514.667a6.935,6.935,0,0,1,1.576.74,3.5,3.5,0,0,0,2.441,1.08h5.662a3.5,3.5,0,0,0,2.441-1.08,20.014,20.014,0,0,1,3.133-1.318l-2.84-.619a32.553,32.553,0,0,0-3.755-.2A22.549,22.549,0,0,0,100.735,514.667Z" transform="translate(-95.298 -513.267)"/>
      <path id="路径_26179" data-name="路径 26179" class="cls-8" d="M100.735,514.667a6.935,6.935,0,0,1,1.576.74,3.5,3.5,0,0,0,2.441,1.08h5.662a3.5,3.5,0,0,0,2.441-1.08,20.014,20.014,0,0,1,3.133-1.318l-2.84-.619a32.553,32.553,0,0,0-3.755-.2A22.549,22.549,0,0,0,100.735,514.667Z" transform="translate(-95.298 -513.267)"/>
      <path id="路径_26180" data-name="路径 26180" class="cls-3" d="M110.932,513.267a23.016,23.016,0,0,0-8.429,1.306,3.138,3.138,0,0,0,2.14.833h5.662a3.5,3.5,0,0,0,2.441-1.08,8.515,8.515,0,0,1,1.9-.86A32.619,32.619,0,0,0,110.932,513.267Z" transform="translate(-96.831 -513.267)"/>
      <path id="路径_26181" data-name="路径 26181" class="cls-9" d="M58.631,522.861v4.125a9.046,9.046,0,0,0,.629,3.318c-.521-3.871-1.241-10.2,2.223-13.277,2.624-2.834,7.132-3.627,11.278-3.591,2.68.024,2.708-.169,0-.169C61.656,513.267,58.631,517.849,58.631,522.861Z" transform="translate(-58.631 -513.267)"/>
      <path id="路径_26182" data-name="路径 26182" class="cls-3" d="M110.932,513.267a23.016,23.016,0,0,0-8.429,1.306,3.138,3.138,0,0,0,2.14.833h5.662a3.5,3.5,0,0,0,2.441-1.08,8.515,8.515,0,0,1,1.9-.86A32.619,32.619,0,0,0,110.932,513.267Z" transform="translate(-96.831 -513.267)"/>
      <line id="直线_121" data-name="直线 121" class="cls-10" y1="1.508" transform="translate(10.325 10.934)"/>
      <line id="直线_122" data-name="直线 122" class="cls-10" y1="1.508" transform="translate(17.854 10.934)"/>
    </g>
  </g>
</svg>
