<svg xmlns="http://www.w3.org/2000/svg" xmlns:xlink="http://www.w3.org/1999/xlink" width="125" height="125" viewBox="0 0 125 125">
  <defs>
    <style>
      .cls-1 {
        fill: #05d3d8;
      }

      .cls-2 {
        fill: #fff;
      }

      .cls-3 {
        filter: url(#矩形_1238);
      }
    </style>
    <filter id="矩形_1238" x="0" y="0" width="125" height="125" filterUnits="userSpaceOnUse">
      <feOffset dy="3" input="SourceAlpha"/>
      <feGaussianBlur stdDeviation="7.5" result="blur"/>
      <feFlood flood-color="#5f5f5f" flood-opacity="0.161"/>
      <feComposite operator="in" in2="blur"/>
      <feComposite in="SourceGraphic"/>
    </filter>
  </defs>
  <g id="组_12166" data-name="组 12166" transform="translate(-92.519 -706.031)">
    <g id="组_12165" data-name="组 12165" transform="translate(115.216 725.728)">
      <g id="组_9430" data-name="组 9430" transform="translate(0 0)">
        <g class="cls-3" transform="matrix(1, 0, 0, 1, -22.7, -19.7)">
          <rect id="矩形_1238-2" data-name="矩形 1238" class="cls-1" width="80" height="80" rx="20" transform="translate(22.5 19.5)"/>
        </g>
        <g id="组_9400" data-name="组 9400" transform="translate(0 0)">
          <rect id="矩形_1765" data-name="矩形 1765" class="cls-1" width="80" height="80" rx="20" transform="translate(-0.197 -0.197)"/>
          <rect id="矩形_1766" data-name="矩形 1766" class="cls-1" width="80" height="80" rx="20" transform="translate(-0.197 -0.197)"/>
        </g>
      </g>
      <g id="组_109" data-name="组 109" transform="translate(14.602 16.189)">
        <circle id="椭圆_10" data-name="椭圆 10" class="cls-2" cx="2.208" cy="2.208" r="2.208" transform="translate(38.659 41.562)"/>
        <circle id="椭圆_11" data-name="椭圆 11" class="cls-2" cx="2.315" cy="2.315" r="2.315" transform="translate(13.914 41.522)"/>
        <path id="路径_397" data-name="路径 397" class="cls-2" d="M1057.572,358.341c-4.042,1.842-13.187,6.535-17.966,4.983-3.087-1-5.159-2.717-5.651-5.968a6.255,6.255,0,0,1,8.07-7.108c2.1.608,3.528,1.842,3.631,4.168a14.7,14.7,0,0,1-.195,2.079h6.616c0-.755,0-1.4,0-2.041-.023-2.991-.058-5.983-.068-8.973q-.009-2.6.012-5.2l.008-.811.035-1.543-.019-.014.073-7.008-3.583,4.944a21.308,21.308,0,0,0-9.213-2.082c-.4,0-.8.013-1.193.035h0a21.736,21.736,0,0,0-8.259,41.333c-.007-.091-.014-.181-.014-.274a3.843,3.843,0,1,1,7.354,1.555h1.772a14.1,14.1,0,0,1,2.125-1.819c2.758-1.56,8.745-1.625,11.15,1.819h2.571a3.843,3.843,0,1,1,7.121-.249,6.818,6.818,0,0,0,5.036-6.576v-7.685C1067,358.109,1061.06,356.752,1057.572,358.341Z" transform="translate(-1017.483 -330.904)"/>
        <path id="矩形_54" data-name="矩形 54" class="cls-2" d="M1274.606,421.031h0V413.8a7.231,7.231,0,0,1,7.231-7.231h0V413.8a7.231,7.231,0,0,1-7.231,7.231Z" transform="translate(-1232.321 -394.126)"/>
      </g>
    </g>
  </g>
</svg>
