<svg xmlns="http://www.w3.org/2000/svg" width="33" height="27" viewBox="0 0 33 27">
  <defs>
    <style>
      .cls-1, .cls-4 {
        fill: #fff;
      }

      .cls-1 {
        opacity: 0;
      }

      .cls-2, .cls-3 {
        fill: none;
      }

      .cls-2, .cls-3, .cls-4 {
        stroke: #222;
        stroke-width: 1.5px;
      }

      .cls-2 {
        stroke-linecap: round;
        stroke-linejoin: round;
      }

      .cls-3, .cls-4 {
        stroke-miterlimit: 10;
      }

      .cls-5 {
        fill: #999;
      }
    </style>
  </defs>
  <g id="组_1618" data-name="组 1618" transform="translate(-147 -488)">
    <rect id="矩形_1059" data-name="矩形 1059" class="cls-1" width="33" height="27" transform="translate(147 488)"/>
    <g id="组_9140" data-name="组 9140" transform="translate(0.587 36.298)">
      <g id="组_1616" data-name="组 1616" transform="translate(150 454)">
        <path id="路径_786" data-name="路径 786" class="cls-2" d="M475.141,336.5H486.46a3.522,3.522,0,0,1,3.234,3.752v9.755a3.522,3.522,0,0,1-3.234,3.752H466.734a3.522,3.522,0,0,1-3.234-3.752v-9.755a3.522,3.522,0,0,1,3.234-3.752" transform="translate(-463.5 -331.998)"/>
        <path id="路径_787" data-name="路径 787" class="cls-3" d="M473.5,329.634V327.8a3.162,3.162,0,0,1,3-3.3h7.128a3.162,3.162,0,0,1,3,3.3v.968" transform="translate(-469.748 -324.5)"/>
        <circle id="椭圆_507" data-name="椭圆 507" class="cls-4" cx="4.754" cy="4.754" r="4.754" transform="translate(5.375 9.442)"/>
        <circle id="椭圆_508" data-name="椭圆 508" class="cls-5" cx="1.126" cy="1.126" r="1.126" transform="translate(20.408 7.316)"/>
      </g>
    </g>
  </g>
</svg>
