<svg xmlns="http://www.w3.org/2000/svg" viewBox="0 0 32 32" width="36" height="36" style="fill: rgba(22, 103, 210, 1);border-color: rgba(0,0,0,0);border-width: bpx;border-style: undefined" filter="none"><path d="M26.667 21.333h2.667v8h-8v-2.667h-10.667v2.667h-8v-8h2.667v-10.667h-2.667v-8h8v2.667h10.667v-2.667h8v8h-2.667v10.667zM24 21.333v-10.667h-2.667v-2.667h-10.667v2.667h-2.667v10.667h2.667v2.667h10.667v-2.667h2.667zM5.333 5.333v2.667h2.667v-2.667h-2.667zM5.333 24v2.667h2.667v-2.667h-2.667zM24 5.333v2.667h2.667v-2.667h-2.667zM24 24v2.667h2.667v-2.667h-2.667z"></path></svg>