<svg xmlns="http://www.w3.org/2000/svg" viewBox="0 0 32 32" width="36" height="36" style="fill: rgba(22, 103, 210, 1);border-color: rgba(0,0,0,0);border-width: bpx;border-style: undefined" filter="none"><path d="M13.104 6.667l-2.667 2.667h-5.104v16h21.333v-16h-5.104l-2.667-2.667h-5.792zM12 4h8l2.667 2.667h5.333c0.736 0 1.333 0.597 1.333 1.333v0 18.667c0 0.736-0.597 1.333-1.333 1.333v0h-24c-0.736 0-1.333-0.597-1.333-1.333v0-18.667c0-0.736 0.597-1.333 1.333-1.333v0h5.333l2.667-2.667zM16 24c-4.050 0-7.333-3.283-7.333-7.333s3.283-7.333 7.333-7.333v0c4.050 0 7.333 3.283 7.333 7.333s-3.283 7.333-7.333 7.333v0zM16 21.333c2.577 0 4.667-2.089 4.667-4.667s-2.089-4.667-4.667-4.667v0c-2.577 0-4.667 2.089-4.667 4.667s2.089 4.667 4.667 4.667v0z"></path></svg>