<svg xmlns="http://www.w3.org/2000/svg" viewBox="0 0 32 32" width="36" height="36" style="fill: rgba(22, 103, 210, 1);border-color: rgba(0,0,0,0);border-width: bpx;border-style: undefined" filter="none"><path d="M22.667 5.333c4.418 0 8 3.582 8 8v0 5.333c0 4.418-3.582 8-8 8v0h-13.333c-4.418 0-8-3.582-8-8v0-5.333c0-4.418 3.582-8 8-8v0h13.333zM22.667 8h-13.333c-2.852 0-5.181 2.238-5.326 5.054l-0.001 0.013-0.007 0.267v5.333c0 2.852 2.238 5.181 5.054 5.326l0.013 0.001 0.267 0.007h13.333c2.852 0 5.181-2.238 5.326-5.054l0.001-0.013 0.007-0.267v-5.333c0-2.852-2.238-5.181-5.054-5.326l-0.013-0.001-0.267-0.007zM13.333 12v2.667h2.667v2.667h-2.668l0.001 2.667h-2.667l-0.001-2.667h-2.665v-2.667h2.667v-2.667h2.667zM24 17.333v2.667h-2.667v-2.667h2.667zM21.333 12v2.667h-2.667v-2.667h2.667z"></path></svg>