<svg xmlns="http://www.w3.org/2000/svg" viewBox="0 0 32 32" width="36" height="36" style="fill: rgba(22, 103, 210, 1);border-color: rgba(0,0,0,0);border-width: bpx;border-style: undefined" filter="none"><path d="M9.333 12c1.841 0 3.333-1.492 3.333-3.333s-1.492-3.333-3.333-3.333v0c-1.841 0-3.333 1.492-3.333 3.333s1.492 3.333 3.333 3.333v0zM9.333 14.667c-3.314 0-6-2.686-6-6s2.686-6 6-6v0c3.314 0 6 2.686 6 6s-2.686 6-6 6v0zM23.333 17.333c1.473 0 2.667-1.194 2.667-2.667s-1.194-2.667-2.667-2.667v0c-1.473 0-2.667 1.194-2.667 2.667s1.194 2.667 2.667 2.667v0zM23.333 20c-2.946 0-5.333-2.388-5.333-5.333s2.388-5.333 5.333-5.333v0c2.946 0 5.333 2.388 5.333 5.333s-2.388 5.333-5.333 5.333v0zM26.667 28v-0.667c0-1.841-1.492-3.333-3.333-3.333s-3.333 1.492-3.333 3.333v0 0.667h-2.667v-0.667c0-3.314 2.686-6 6-6s6 2.686 6 6v0 0.667h-2.667zM13.333 28v-5.333c0-2.209-1.791-4-4-4s-4 1.791-4 4v0 5.333h-2.667v-5.333c0-3.682 2.985-6.667 6.667-6.667s6.667 2.985 6.667 6.667v0 5.333h-2.667z"></path></svg>