<svg xmlns="http://www.w3.org/2000/svg" viewBox="0 0 32 32" width="28" height="28" style="fill: rgba(255, 255, 255, 1);border-color: rgba(0,0,0,0);border-width: bpx;border-style: undefined" filter="none"><path d="M21.333 22.667v-1.333h-4v-4h4v2.667h2.667v2.667h-1.333v2.667h-2.667v2.667h-2.667v-4h2.667v-1.333h1.333zM28 28h-5.333v-2.667h2.667v-2.667h2.667v5.333zM4 4h10.667v10.667h-10.667v-10.667zM6.667 6.667v5.333h5.333v-5.333h-5.333zM17.333 4h10.667v10.667h-10.667v-10.667zM20 6.667v5.333h5.333v-5.333h-5.333zM4 17.333h10.667v10.667h-10.667v-10.667zM6.667 20v5.333h5.333v-5.333h-5.333zM24 17.333h4v2.667h-4v-2.667zM8 8h2.667v2.667h-2.667v-2.667zM8 21.333h2.667v2.667h-2.667v-2.667zM21.333 8h2.667v2.667h-2.667v-2.667z"></path></svg>